<svg xmlns="http://www.w3.org/2000/svg" viewBox="0 0 92 80"><rect width="72" height="72" x="4" y="4" fill="none" stroke="#000" stroke-miterlimit="10" stroke-width="8" rx="5"/><path style="stroke:#000" d="M78,28a2,2,0,0,1-2-2V22a2,2,0,0,1,2-2H90a2,2,0,0,1,2,2v4a2,2,0,0,1-2,2ZM90,44a2,2,0,0,0,2-2V38a2,2,0,0,0-2-2H78a2,2,0,0,0-2,2v4a2,2,0,0,0,2,2Zm0,16a2,2,0,0,0,2-2V54a2,2,0,0,0-2-2H78a2,2,0,0,0-2,2v4a2,2,0,0,0,2,2Z"/><rect width="20" height="20" x="16" y="16"/><rect width="20" height="20" x="16" y="44"/><rect width="20" height="12" x="44" y="16"/><rect width="20" height="28" x="44" y="36"/></svg>